<?xml version="1.0" standalone="no"?>
<!DOCTYPE svg PUBLIC "-//W3C//DTD SVG 20010904//EN"
 "http://www.w3.org/TR/2001/REC-SVG-20010904/DTD/svg10.dtd">
<svg version="1.0" xmlns="http://www.w3.org/2000/svg"
 width="684.000000pt" height="684.000000pt" viewBox="0 0 684.000000 684.000000"
 preserveAspectRatio="xMidYMid meet">
<metadata>
Created by potrace 1.11, written by Peter Selinger 2001-2013
</metadata>
<g transform="translate(0.000000,684.000000) scale(0.100000,-0.100000)"
fill="#000000" stroke="none">
<path d="M402 6558 l3 -283 90 -1 c195 -3 287 -27 353 -94 55 -55 88 -139 109
-280 9 -65 10 -4839 1 -4920 -4 -30 -12 -75 -18 -100 -6 -25 -12 -52 -14 -61
-6 -25 -43 -91 -64 -115 -23 -27 -88 -61 -133 -70 -40 -8 -108 -12 -236 -13
l-93 -1 0 -300 0 -301 108 0 c59 1 134 1 167 2 33 1 66 1 73 1 6 -1 111 -1
232 -1 121 0 228 0 238 0 9 0 139 0 287 0 l270 -1 108 32 c110 31 140 52 156
106 3 9 7 1470 8 3247 2 2882 1 3235 -13 3274 -17 51 -33 81 -48 96 -18 17
-66 46 -66 40 0 -3 -13 1 -29 9 -24 13 -133 15 -760 16 l-731 0 2 -282z"/>
<path d="M2385 3513 c1 -1830 4 -3335 7 -3343 13 -40 27 -66 44 -82 20 -16 89
-38 156 -48 4 -1 22 -6 40 -11 37 -11 1087 -14 1153 -3 22 3 45 9 50 12 6 4
18 8 28 9 38 6 113 44 126 64 13 23 20 45 26 94 6 43 5 2477 0 2555 -3 36 -7
76 -9 90 -14 88 -18 107 -23 120 -3 8 -8 24 -10 35 -6 34 -45 139 -56 154 -6
7 -12 19 -13 27 -7 47 -166 229 -236 270 -70 41 -172 84 -231 98 -265 62 -481
20 -682 -131 -38 -29 -73 -53 -77 -53 -4 0 -13 10 -19 22 -7 13 -17 26 -23 30
-31 21 289 258 348 258 8 0 16 3 18 8 3 8 128 49 173 56 172 29 305 23 480
-18 192 -46 374 -164 481 -311 16 -22 32 -42 35 -45 3 -3 26 -48 51 -100 44
-90 74 -179 84 -245 2 -16 7 -37 10 -45 4 -8 8 -31 10 -50 2 -19 6 -51 10 -70
3 -19 7 -480 9 -1025 2 -545 5 -1028 8 -1075 6 -96 17 -203 23 -240 2 -14 7
-43 10 -65 2 -22 8 -51 11 -65 3 -14 8 -34 10 -45 16 -88 81 -231 125 -271 58
-55 67 -57 213 -40 107 13 182 24 207 32 9 3 25 6 35 8 89 18 268 76 368 121
130 57 315 165 323 186 2 5 8 9 14 9 38 0 297 259 390 390 60 85 176 295 206
375 29 77 52 140 51 140 -2 0 15 61 20 70 3 6 6 15 7 20 1 6 9 44 18 85 22 98
24 112 32 179 3 31 9 60 12 65 9 16 11 417 1 491 -4 39 -11 90 -14 115 -3 25
-7 56 -10 70 -3 14 -10 48 -15 76 -6 27 -19 81 -31 120 -11 38 -22 76 -24 84
-14 61 -141 341 -157 348 -5 2 -8 8 -8 14 0 5 -13 29 -30 53 -16 24 -30 48
-30 54 0 6 -4 11 -8 11 -4 0 -16 13 -25 30 -10 16 -23 35 -30 42 -7 8 -22 28
-35 46 -76 108 -271 291 -406 382 l-49 33 25 21 c14 12 41 32 59 46 46 34 155
147 185 190 13 19 36 53 51 75 133 189 232 502 258 815 11 133 6 391 -10 470
-3 14 -7 39 -9 55 -10 80 -70 278 -113 375 -87 197 -199 358 -362 520 -119
117 -160 151 -281 231 -58 38 -109 73 -115 77 -19 14 -240 121 -295 142 -70
28 -267 91 -294 95 -12 2 -48 9 -81 16 -33 6 -72 13 -87 14 -15 1 -30 4 -34 7
-3 4 -471 7 -1038 8 l-1033 1 2 -3328z"/>
</g>
</svg>
